<svg xmlns="http://www.w3.org/2000/svg" width="720" height="340" viewBox="0 0 720 340" font-family="ui-monospace,Menlo,Consolas,monospace">
<rect width="720" height="340" fill="#ffffff"/>
<text x="64" y="22" font-size="14" font-weight="700" fill="#111">V1 — Δ(c,p) histogram, phase 1</text>
<text x="64" y="38" font-size="10.5" fill="#555">N=70. Descriptive; no fitted curve, no error bars.</text>
<line x1="64" y1="288" x2="700" y2="288" stroke="#333"/><line x1="64" y1="44" x2="64" y2="288" stroke="#333"/><text x="382" y="326" font-size="11" text-anchor="middle" fill="#333">Δ(c,p)</text><text x="14" y="166" font-size="11" text-anchor="middle" fill="#333" transform="rotate(-90 14 166)">configurations</text><line x1="64" y1="288" x2="64" y2="292" stroke="#333"/><text x="64" y="305" font-size="9.5" text-anchor="middle" fill="#444">-0.2409</text><line x1="170" y1="288" x2="170" y2="292" stroke="#333"/><text x="170" y="305" font-size="9.5" text-anchor="middle" fill="#444">-0.1393</text><line x1="276" y1="288" x2="276" y2="292" stroke="#333"/><text x="276" y="305" font-size="9.5" text-anchor="middle" fill="#444">-0.0376</text><line x1="382" y1="288" x2="382" y2="292" stroke="#333"/><text x="382" y="305" font-size="9.5" text-anchor="middle" fill="#444">0.0641</text><line x1="488.00000000000006" y1="288" x2="488.00000000000006" y2="292" stroke="#333"/><text x="488.00000000000006" y="305" font-size="9.5" text-anchor="middle" fill="#444">0.1658</text><line x1="594" y1="288" x2="594" y2="292" stroke="#333"/><text x="594" y="305" font-size="9.5" text-anchor="middle" fill="#444">0.2674</text><line x1="700" y1="288" x2="700" y2="292" stroke="#333"/><text x="700" y="305" font-size="9.5" text-anchor="middle" fill="#444">0.3691</text><line x1="60" y1="288" x2="64" y2="288" stroke="#333"/><text x="56" y="291" font-size="9.5" text-anchor="end" fill="#444">0</text><line x1="60" y1="253.14285714285714" x2="64" y2="253.14285714285714" stroke="#333"/><text x="56" y="256.1428571428571" font-size="9.5" text-anchor="end" fill="#444">1</text><line x1="60" y1="183.42857142857144" x2="64" y2="183.42857142857144" stroke="#333"/><text x="56" y="186.42857142857144" font-size="9.5" text-anchor="end" fill="#444">3</text><line x1="60" y1="148.57142857142858" x2="64" y2="148.57142857142858" stroke="#333"/><text x="56" y="151.57142857142858" font-size="9.5" text-anchor="end" fill="#444">4</text><line x1="60" y1="78.85714285714286" x2="64" y2="78.85714285714286" stroke="#333"/><text x="56" y="81.85714285714286" font-size="9.5" text-anchor="end" fill="#444">6</text><line x1="60" y1="44" x2="64" y2="44" stroke="#333"/><text x="56" y="47" font-size="9.5" text-anchor="end" fill="#444">7</text><rect x="64" y="218.28571428571428" width="25.499999999999986" height="69.71428571428572" fill="#3b6ea5"/><rect x="117" y="148.57142857142858" width="25.5" height="139.42857142857142" fill="#3b6ea5"/><rect x="170" y="218.28571428571428" width="25.5" height="69.71428571428572" fill="#3b6ea5"/><rect x="196.5" y="183.42857142857144" width="25.5" height="104.57142857142856" fill="#3b6ea5"/><rect x="223" y="183.42857142857144" width="25.5" height="104.57142857142856" fill="#3b6ea5"/><rect x="249.5" y="148.57142857142858" width="25.5" height="139.42857142857142" fill="#3b6ea5"/><rect x="276" y="44" width="25.5" height="244" fill="#3b6ea5"/><rect x="302.5" y="218.28571428571428" width="25.5" height="69.71428571428572" fill="#3b6ea5"/><rect x="329" y="113.71428571428572" width="25.5" height="174.28571428571428" fill="#3b6ea5"/><rect x="355.5" y="78.85714285714286" width="25.5" height="209.14285714285714" fill="#3b6ea5"/><rect x="382" y="113.71428571428572" width="25.500000000000057" height="174.28571428571428" fill="#3b6ea5"/><rect x="408.50000000000006" y="113.71428571428572" width="25.499999999999943" height="174.28571428571428" fill="#3b6ea5"/><rect x="435" y="113.71428571428572" width="25.5" height="174.28571428571428" fill="#3b6ea5"/><rect x="461.5" y="78.85714285714286" width="25.500000000000057" height="209.14285714285714" fill="#3b6ea5"/><rect x="488.00000000000006" y="218.28571428571428" width="25.499999999999943" height="69.71428571428572" fill="#3b6ea5"/><rect x="514.5" y="183.42857142857144" width="25.5" height="104.57142857142856" fill="#3b6ea5"/><rect x="541" y="183.42857142857144" width="25.5" height="104.57142857142856" fill="#3b6ea5"/><rect x="567.5" y="218.28571428571428" width="25.5" height="69.71428571428572" fill="#3b6ea5"/><rect x="673.5" y="253.14285714285714" width="25.5" height="34.85714285714286" fill="#3b6ea5"/><line x1="315.183106136431" y1="44" x2="315.183106136431" y2="288" stroke="#c33" stroke-dasharray="4 3"/>
</svg>